<svg width="126" height="156" viewBox="0 0 126 156" fill="none" xmlns="http://www.w3.org/2000/svg">
<path d="M39.3134 18.3663L97.8632 106.96V17.5459C97.8632 11.7355 99.0938 7.39466 101.555 4.52346C104.084 1.58406 107.468 0.114258 111.706 0.114258C116.081 0.114258 119.533 1.58406 122.062 4.52346C124.592 7.39466 125.856 11.7355 125.856 17.5459V135.773C125.856 148.966 120.388 155.564 109.45 155.564C106.716 155.564 104.255 155.154 102.067 154.334C99.8798 153.582 97.8292 152.35 95.915 150.642C94.001 148.932 92.2236 146.95 90.583 144.694C88.9424 142.37 87.3018 140.012 85.6612 137.619L28.5468 50.0509V138.132C28.5468 143.874 27.2138 148.214 24.5478 151.154C21.8818 154.094 18.4638 155.564 14.294 155.564C9.98741 155.564 6.53521 154.094 3.93761 151.154C1.33981 148.146 0.0410156 143.806 0.0410156 138.132V22.1603C0.0410156 17.2383 0.587818 13.3761 1.68162 10.5733C2.98042 7.49706 5.13382 5.00206 8.14162 3.08786C11.1494 1.10546 14.3964 0.114258 17.8828 0.114258C20.6172 0.114258 22.9414 0.558658 24.8554 1.44726C26.8378 2.33606 28.5468 3.53226 29.9824 5.03626C31.4864 6.54006 32.9902 8.48826 34.4942 10.8809C36.0664 13.2735 37.6728 15.7687 39.3134 18.3663Z" fill="currentColor"/>
</svg>
