<svg width="128" height="128" viewBox="0 0 128 128" fill="none" xmlns="http://www.w3.org/2000/svg">
<g clip-path="url(#clip0_18_12)">
<path d="M112 0H16C7.16344 0 0 7.16344 0 16V112C0 120.837 7.16344 128 16 128H112C120.837 128 128 120.837 128 112V16C128 7.16344 120.837 0 112 0Z" fill="black"/>
<path d="M52.1557 35.6826L81.4306 79.9795V35.2724C81.4306 32.3672 82.0459 30.1968 83.2763 28.7612C84.541 27.2915 86.2329 26.5566 88.352 26.5566C90.5395 26.5566 92.2656 27.2915 93.5302 28.7612C94.7949 30.1968 95.4272 32.3672 95.4272 35.2724V94.3862C95.4272 100.983 92.6928 104.282 87.2241 104.282C85.8569 104.282 84.6264 104.077 83.5327 103.667C82.4389 103.291 81.4136 102.675 80.4565 101.821C79.4995 100.966 78.6108 99.9746 77.7905 98.8467C76.9702 97.6846 76.1499 96.5054 75.3296 95.3091L46.7724 51.5249V95.5654C46.7724 98.4365 46.1059 100.607 44.7729 102.077C43.4399 103.547 41.7309 104.282 39.646 104.282C37.4927 104.282 35.7666 103.547 34.4678 102.077C33.1689 100.573 32.5195 98.4023 32.5195 95.5654V37.5796C32.5195 35.1186 32.7929 33.1875 33.3398 31.7861C33.9892 30.248 35.0659 29.0005 36.5698 28.0434C38.0737 27.0522 39.6972 26.5566 41.4404 26.5566C42.8076 26.5566 43.9697 26.7788 44.9267 27.2231C45.9179 27.6675 46.7724 28.2656 47.4902 29.0176C48.2422 29.7695 48.9941 30.7436 49.7461 31.9399C50.5322 33.1362 51.3354 34.3838 52.1557 35.6826Z" fill="white"/>
</g>
<defs>
<clipPath id="clip0_18_12">
<rect width="128" height="128" fill="white"/>
</clipPath>
</defs>
</svg>
