<svg width="26" height="33" viewBox="0 0 32 40" fill="none" xmlns="http://www.w3.org/2000/svg">
  <path d="M9.98858 4.69657L24.8802 27.4933V4.48546C24.8802 2.99034 25.1932 1.87338 25.8191 1.13457C26.4624 0.378205 27.323 0 28.401 0C29.5137 0 30.3918 0.378205 31.035 1.13457C31.6784 1.87338 32 2.99034 32 4.48546V34.9075C32 38.3022 30.6091 40 27.8272 40C27.1318 40 26.5058 39.8945 25.9495 39.6835C25.3931 39.49 24.8715 39.173 24.3847 38.7335C23.8979 38.2935 23.4458 37.7835 23.0285 37.2031C22.6113 36.605 22.194 35.9981 21.7767 35.3825L7.25019 12.8496V35.5144C7.25019 36.992 6.91115 38.1087 6.23308 38.8652C5.55501 39.6217 4.68567 40 3.62512 40C2.52978 40 1.65174 39.6217 0.991064 38.8652C0.330338 38.0912 0 36.9744 0 35.5144V5.67283C0 4.40631 0.139074 3.4125 0.417272 2.69129C0.74761 1.89973 1.29531 1.25772 2.06031 0.76516C2.82532 0.255053 3.65116 0 4.5379 0C5.23337 0 5.82451 0.114352 6.31132 0.343005C6.81552 0.571709 7.25019 0.879513 7.61532 1.26652C7.99785 1.65347 8.38033 2.15478 8.76286 2.77044C9.16273 3.3861 9.57131 4.02816 9.98858 4.69657Z" fill="currentColor"/>
</svg>
